<svg xmlns="http://www.w3.org/2000/svg" viewBox="0 0 48 48"><path fill="#546e7a" d="M6 8H42V34H6z"/><path fill="#bbdefb" d="M8 10H40V31H8z"/><path fill="#e38939" d="M18,28h-6c-1.105,0-2-0.895-2-2V15c0-1.105,0.895-2,2-2h6c1.105,0,2,0.895,2,2v11C20,27.105,19.105,28,18,28z"/><path fill="#455a64" d="M21 34H27V37H21zM33 37c-2 0-16 0-18 0s-2 2-2 2v1h22v-1C35 39 35 37 33 37z"/><path fill="#a6642a" d="M16,26c0,0.552-0.448,1-1,1s-1-0.448-1-1s0.448-1,1-1S16,25.448,16,26"/><path fill="#fff3e0" d="M12 15H18V25H12z"/><path fill="#e38939" d="M36,28H24c-1.105,0-2-0.895-2-2V15c0-1.105,0.895-2,2-2h12c1.105,0,2,0.895,2,2v11C38,27.105,37.105,28,36,28z"/><path fill="#a6642a" d="M31,26c0,0.552-0.448,1-1,1s-1-0.448-1-1s0.448-1,1-1S31,25.448,31,26"/><path fill="#fff3e0" d="M24 15H36V25H24z"/></svg>